<svg id="visual" viewBox="0 0 960 540" width="960" height="540" xmlns="http://www.w3.org/2000/svg" xmlns:xlink="http://www.w3.org/1999/xlink" version="1.1"><rect x="0" y="0" width="960" height="540" fill="#F9FEFF"></rect><path d="M0 193L20 196.7C40 200.3 80 207.7 120 223.3C160 239 200 263 240 261.8C280 260.7 320 234.3 360 230.8C400 227.3 440 246.7 480 245.5C520 244.3 560 222.7 600 214.3C640 206 680 211 720 210.3C760 209.7 800 203.3 840 201.8C880 200.3 920 203.7 940 205.3L960 207L960 541L940 541C920 541 880 541 840 541C800 541 760 541 720 541C680 541 640 541 600 541C560 541 520 541 480 541C440 541 400 541 360 541C320 541 280 541 240 541C200 541 160 541 120 541C80 541 40 541 20 541L0 541Z" fill="#60a5fa"></path><path d="M0 302L20 289.5C40 277 80 252 120 248C160 244 200 261 240 261.8C280 262.7 320 247.3 360 253.5C400 259.7 440 287.3 480 287C520 286.7 560 258.3 600 257.5C640 256.7 680 283.3 720 287.5C760 291.7 800 273.3 840 264C880 254.7 920 254.3 940 254.2L960 254L960 541L940 541C920 541 880 541 840 541C800 541 760 541 720 541C680 541 640 541 600 541C560 541 520 541 480 541C440 541 400 541 360 541C320 541 280 541 240 541C200 541 160 541 120 541C80 541 40 541 20 541L0 541Z" fill="#5194ef"></path><path d="M0 361L20 346.3C40 331.7 80 302.3 120 290C160 277.7 200 282.3 240 294.3C280 306.3 320 325.7 360 323.2C400 320.7 440 296.3 480 297C520 297.7 560 323.3 600 324.3C640 325.3 680 301.7 720 289.8C760 278 800 278 840 289.2C880 300.3 920 322.7 940 333.8L960 345L960 541L940 541C920 541 880 541 840 541C800 541 760 541 720 541C680 541 640 541 600 541C560 541 520 541 480 541C440 541 400 541 360 541C320 541 280 541 240 541C200 541 160 541 120 541C80 541 40 541 20 541L0 541Z" fill="#4483e3"></path><path d="M0 382L20 377.2C40 372.3 80 362.7 120 361C160 359.3 200 365.7 240 365C280 364.3 320 356.7 360 358.5C400 360.3 440 371.7 480 377.8C520 384 560 385 600 379.3C640 373.7 680 361.3 720 351.8C760 342.3 800 335.7 840 339.5C880 343.3 920 357.7 940 364.8L960 372L960 541L940 541C920 541 880 541 840 541C800 541 760 541 720 541C680 541 640 541 600 541C560 541 520 541 480 541C440 541 400 541 360 541C320 541 280 541 240 541C200 541 160 541 120 541C80 541 40 541 20 541L0 541Z" fill="#3872d7"></path><path d="M0 391L20 387C40 383 80 375 120 375.2C160 375.3 200 383.7 240 391.7C280 399.7 320 407.3 360 405.7C400 404 440 393 480 392.3C520 391.7 560 401.3 600 408.3C640 415.3 680 419.7 720 425.2C760 430.7 800 437.3 840 429.2C880 421 920 398 940 386.5L960 375L960 541L940 541C920 541 880 541 840 541C800 541 760 541 720 541C680 541 640 541 600 541C560 541 520 541 480 541C440 541 400 541 360 541C320 541 280 541 240 541C200 541 160 541 120 541C80 541 40 541 20 541L0 541Z" fill="#2e61ca"></path><path d="M0 454L20 451.7C40 449.3 80 444.7 120 446.8C160 449 200 458 240 459.7C280 461.3 320 455.7 360 454.5C400 453.3 440 456.7 480 450.5C520 444.3 560 428.7 600 427.8C640 427 680 441 720 444.5C760 448 800 441 840 443.7C880 446.3 920 458.7 940 464.8L960 471L960 541L940 541C920 541 880 541 840 541C800 541 760 541 720 541C680 541 640 541 600 541C560 541 520 541 480 541C440 541 400 541 360 541C320 541 280 541 240 541C200 541 160 541 120 541C80 541 40 541 20 541L0 541Z" fill="#2551bd"></path><path d="M0 501L20 499.3C40 497.7 80 494.3 120 488C160 481.7 200 472.3 240 470C280 467.7 320 472.3 360 479.3C400 486.3 440 495.7 480 497.2C520 498.7 560 492.3 600 488.7C640 485 680 484 720 482.3C760 480.7 800 478.3 840 483C880 487.7 920 499.3 940 505.2L960 511L960 541L940 541C920 541 880 541 840 541C800 541 760 541 720 541C680 541 640 541 600 541C560 541 520 541 480 541C440 541 400 541 360 541C320 541 280 541 240 541C200 541 160 541 120 541C80 541 40 541 20 541L0 541Z" fill="#1e40af"></path></svg>