<svg id="visual" viewBox="0 0 960 540" width="960" height="540" xmlns="http://www.w3.org/2000/svg" xmlns:xlink="http://www.w3.org/1999/xlink" version="1.1"><rect x="0" y="0" width="960" height="540" fill="#0f172a"></rect><path d="M0 236L20 239.3C40 242.7 80 249.3 120 263C160 276.7 200 297.3 240 296.2C280 295 320 272 360 269C400 266 440 283 480 282.2C520 281.3 560 262.7 600 255.3C640 248 680 252 720 251.3C760 250.7 800 245.3 840 244C880 242.7 920 245.3 940 246.7L960 248L960 541L940 541C920 541 880 541 840 541C800 541 760 541 720 541C680 541 640 541 600 541C560 541 520 541 480 541C440 541 400 541 360 541C320 541 280 541 240 541C200 541 160 541 120 541C80 541 40 541 20 541L0 541Z" fill="#64748b"></path><path d="M0 332L20 321C40 310 80 288 120 284.5C160 281 200 296 240 296.7C280 297.3 320 283.7 360 289C400 294.3 440 318.7 480 318.5C520 318.3 560 293.7 600 293C640 292.3 680 315.7 720 319.3C760 323 800 307 840 298.8C880 290.7 920 290.3 940 290.2L960 290L960 541L940 541C920 541 880 541 840 541C800 541 760 541 720 541C680 541 640 541 600 541C560 541 520 541 480 541C440 541 400 541 360 541C320 541 280 541 240 541C200 541 160 541 120 541C80 541 40 541 20 541L0 541Z" fill="#58677d"></path><path d="M0 383L20 370.2C40 357.3 80 331.7 120 320.8C160 310 200 314 240 324.5C280 335 320 352 360 349.8C400 347.7 440 326.3 480 327C520 327.7 560 350.3 600 351.2C640 352 680 331 720 320.7C760 310.3 800 310.7 840 320.5C880 330.3 920 349.7 940 359.3L960 369L960 541L940 541C920 541 880 541 840 541C800 541 760 541 720 541C680 541 640 541 600 541C560 541 520 541 480 541C440 541 400 541 360 541C320 541 280 541 240 541C200 541 160 541 120 541C80 541 40 541 20 541L0 541Z" fill="#4c5a6f"></path><path d="M0 402L20 397.7C40 393.3 80 384.7 120 383.2C160 381.7 200 387.3 240 386.8C280 386.3 320 379.7 360 381.3C400 383 440 393 480 398.3C520 403.7 560 404.3 600 399.3C640 394.3 680 383.7 720 375.3C760 367 800 361 840 364.3C880 367.7 920 380.3 940 386.7L960 393L960 541L940 541C920 541 880 541 840 541C800 541 760 541 720 541C680 541 640 541 600 541C560 541 520 541 480 541C440 541 400 541 360 541C320 541 280 541 240 541C200 541 160 541 120 541C80 541 40 541 20 541L0 541Z" fill="#404d62"></path><path d="M0 410L20 406.5C40 403 80 396 120 396C160 396 200 403 240 409.8C280 416.7 320 423.3 360 422C400 420.7 440 411.3 480 410.8C520 410.3 560 418.7 600 424.7C640 430.7 680 434.3 720 439.2C760 444 800 450 840 443C880 436 920 416 940 406L960 396L960 541L940 541C920 541 880 541 840 541C800 541 760 541 720 541C680 541 640 541 600 541C560 541 520 541 480 541C440 541 400 541 360 541C320 541 280 541 240 541C200 541 160 541 120 541C80 541 40 541 20 541L0 541Z" fill="#344155"></path><path d="M0 464L20 462C40 460 80 456 120 458C160 460 200 468 240 469.5C280 471 320 466 360 465C400 464 440 467 480 461.7C520 456.3 560 442.7 600 442C640 441.3 680 453.7 720 456.7C760 459.7 800 453.3 840 455.7C880 458 920 469 940 474.5L960 480L960 541L940 541C920 541 880 541 840 541C800 541 760 541 720 541C680 541 640 541 600 541C560 541 520 541 480 541C440 541 400 541 360 541C320 541 280 541 240 541C200 541 160 541 120 541C80 541 40 541 20 541L0 541Z" fill="#293548"></path><path d="M0 506L20 504.5C40 503 80 500 120 494.5C160 489 200 481 240 479C280 477 320 481 360 487.2C400 493.3 440 501.7 480 503C520 504.3 560 498.7 600 495.3C640 492 680 491 720 489.5C760 488 800 486 840 490.2C880 494.3 920 504.7 940 509.8L960 515L960 541L940 541C920 541 880 541 840 541C800 541 760 541 720 541C680 541 640 541 600 541C560 541 520 541 480 541C440 541 400 541 360 541C320 541 280 541 240 541C200 541 160 541 120 541C80 541 40 541 20 541L0 541Z" fill="#1e293b"></path></svg>